<svg width="48" height="48" viewBox="0 0 48 48" fill="none" xmlns="http://www.w3.org/2000/svg">
<rect width="48" height="48" fill="white"/>
<path d="M23.6866 38.4561C23.2765 38.4561 22.9255 38.3141 22.6335 38.0302C22.3414 37.7463 22.1954 37.405 22.1954 37.0063V26.8583C22.1954 26.4596 22.3414 26.1183 22.6335 25.8344C22.9255 25.5505 23.2765 25.4085 23.6866 25.4085H34.1246C34.5347 25.4085 34.8857 25.5505 35.1777 25.8344C35.4697 26.1183 35.6158 26.4596 35.6158 26.8583V37.0063C35.6158 37.405 35.4697 37.7463 35.1777 38.0302C34.8857 38.3141 34.5347 38.4561 34.1246 38.4561H23.6866ZM23.6866 37.0063H34.1246V26.8583H23.6866V37.0063Z" fill="#EADDFF"/>
<path d="M22.3145 35.3063C19.7197 35.3063 17.5186 34.4025 15.7112 32.5951C13.9037 30.7876 13 28.5865 13 25.9918C13 23.9071 13.6154 22.0387 14.8463 20.3865C16.0771 18.7342 17.6905 17.6198 19.6865 17.0432C19.2429 16.9323 18.8105 16.7715 18.3891 16.5609C17.9677 16.3502 17.5907 16.0785 17.2581 15.7458C16.5262 15.014 16.0549 14.1435 15.8442 13.1345C15.6336 12.1254 15.5837 11.0997 15.6945 10.0574C16.7369 9.94647 17.7626 9.99637 18.7717 10.2071C19.7807 10.4177 20.6512 10.889 21.383 11.6209C21.8931 12.1309 22.2646 12.7075 22.4975 13.3507C22.7303 13.9938 22.88 14.6702 22.9465 15.3799C23.2348 14.6924 23.5841 14.0437 23.9944 13.4339C24.4047 12.824 24.8649 12.264 25.375 11.7539C25.6189 11.51 25.9294 11.388 26.3064 11.388C26.6834 11.388 26.9939 11.51 27.2379 11.7539C27.4818 11.9979 27.6038 12.3084 27.6038 12.6854C27.6038 13.0624 27.4818 13.3729 27.2379 13.6168C26.75 14.1047 26.3175 14.6425 25.9405 15.2302C25.5635 15.8179 25.2863 16.4444 25.1088 17.1098C27.0604 17.7307 28.635 18.8562 29.8326 20.4863C31.0302 22.1163 31.629 23.9515 31.629 25.9918C31.629 28.5865 30.7252 30.7876 28.9178 32.5951C27.1103 34.4025 24.9092 35.3063 22.3145 35.3063ZM22.3145 32.645C24.1552 32.645 25.7243 31.9963 27.0216 30.6989C28.319 29.4016 28.9677 27.8325 28.9677 25.9918C28.9677 24.1511 28.319 22.582 27.0216 21.2846C25.7243 19.9873 24.1552 19.3386 22.3145 19.3386C20.4738 19.3386 18.9047 19.9873 17.6073 21.2846C16.31 22.582 15.6613 24.1511 15.6613 25.9918C15.6613 27.8325 16.31 29.4016 17.6073 30.6989C18.9047 31.9963 20.4738 32.645 22.3145 32.645Z" fill="#65558F"/>
<rect x="22.1954" y="32.243" width="1.49115" height="3.23082" fill="#EADDFF"/>
</svg>
